<svg xmlns="http://www.w3.org/2000/svg" viewBox="0 0 59.77 59.77"><defs><style>.cls-1{fill:#f05454;}.cls-2{fill:#f5f3f1;}.cls-3{fill:#5b5752;}</style></defs><title>landing6</title><g id="Layer_2" data-name="Layer 2"><g id="_4" data-name="4"><path class="cls-1" d="M47.18,9.44h-44A3,3,0,0,0,0,12.16V47.6a3,3,0,0,0,3.14,2.72h22l15.73,9.44V50.33h6.29a3,3,0,0,0,3.15-2.72V12.16A3,3,0,0,0,47.18,9.44Z"/><path class="cls-2" d="M9.44,2.73V38.17a3,3,0,0,0,3.15,2.73h6.29v9.44L34.6,40.89h22a3,3,0,0,0,3.14-2.73V2.73A3,3,0,0,0,56.62,0h-44A3,3,0,0,0,9.44,2.73Z"/><circle class="cls-3" cx="50.33" cy="20.45" r="4.72"/><path class="cls-3" d="M29.88,20.45a4.72,4.72,0,1,1,4.72,4.72A4.72,4.72,0,0,1,29.88,20.45Z"/><circle class="cls-3" cx="18.87" cy="20.45" r="4.72"/></g></g></svg>