<svg xmlns="http://www.w3.org/2000/svg" viewBox="0 0 61.88 43.32"><defs><style>.cls-1{fill:#615d62;}.cls-2{fill:#f5f3f1;}</style></defs><title>landing5</title><g id="Layer_2" data-name="Layer 2"><g id="_4" data-name="4"><path class="cls-1" d="M0,0V43.32H61.88V0ZM6.8,41.77H2.16V38.68H6.8Zm0-6.19H2.16v-3.1H6.8Zm0-6.19H2.16V26.3H6.8Zm0-6.19H2.16v-3.1H6.8ZM6.8,17H2.16v-3.1H6.8Zm0-6.19H2.16V7.74H6.8Zm0-6.19H2.16V1.55H6.8ZM52.6,41H9.28V2.32H52.6Zm7.12.77H55.08V38.68h4.64Zm0-6.19H55.08v-3.1h4.64Zm0-6.19H55.08V26.3h4.64Zm0-6.19H55.08v-3.1h4.64Zm0-6.18H55.08v-3.1h4.64Zm0-6.19H55.08V7.74h4.64Zm0-6.19H55.08V1.55h4.64Z"/><rect class="cls-2" x="9.28" y="2.32" width="43.32" height="38.68"/><polygon class="cls-1" points="22.44 13.15 22.44 30.17 42.54 21.66 22.44 13.15"/></g></g></svg>