<svg xmlns="http://www.w3.org/2000/svg" viewBox="0 0 70.27 69.77"><defs><style>.cls-1{fill:#fff;}.cls-2{fill:#662513;}.cls-3{fill:#3b2416;}</style></defs><title>landing1</title><g id="Layer_2" data-name="Layer 2"><g id="Object"><circle class="cls-1" cx="36.39" cy="35.89" r="33.87"/><path class="cls-1" d="M16.54,7.52a6.37,6.37,0,0,1,0,9h0a6.38,6.38,0,0,1-9,0L1.87,10.88a6.37,6.37,0,0,1,0-9h0a6.38,6.38,0,0,1,9,0Z"/><circle class="cls-2" cx="36.39" cy="35.89" r="26.25"/><path class="cls-3" d="M30.52,15.39A28.63,28.63,0,0,1,58.5,50,26.25,26.25,0,0,0,16,19.33,28.48,28.48,0,0,1,30.52,15.39Z"/></g></g></svg>