<svg xmlns="http://www.w3.org/2000/svg" viewBox="0 0 110.25 87.12"><defs><style>.cls-1{fill:#fff;}</style></defs><title>landing7</title><g id="Layer_2" data-name="Layer 2"><g id="Object"><path class="cls-1" d="M63.33,60.84A1.93,1.93,0,0,0,63.89,57L62,56.75a29.17,29.17,0,0,0,0-5.45L63.84,51a1.93,1.93,0,0,0-.65-3.8l-1.83.32a29,29,0,0,0-1.74-5.17l1.64-.87a1.93,1.93,0,1,0-1.8-3.41l-1.63.87a29.69,29.69,0,0,0-3.28-4.37l1.29-1.34a1.93,1.93,0,1,0-2.77-2.68l-1.29,1.34a29.24,29.24,0,0,0-4.47-3.13l.81-1.68a1.93,1.93,0,1,0-3.47-1.68l-.81,1.67a29.43,29.43,0,0,0-5.22-1.56l.25-1.87a1.93,1.93,0,0,0-3.82-.52L34.8,25a29.43,29.43,0,0,0-4.95.07l-.27-1.71a1.93,1.93,0,0,0-3.8.61L26,25.69a28.91,28.91,0,0,0-5.15,1.73l-.81-1.57a1.93,1.93,0,0,0-3.42,1.76l.82,1.6a29.72,29.72,0,0,0-4.34,3.25l-1.29-1.27a1.93,1.93,0,1,0-2.7,2.74l1.31,1.29a29.18,29.18,0,0,0-3.12,4.42l-1.65-.82A1.93,1.93,0,1,0,4,42.27l1.67.83a29.47,29.47,0,0,0-1.57,5.17L2.21,48a1.93,1.93,0,1,0-.56,3.81l1.88.27a29.25,29.25,0,0,0,.09,5.39l-1.87.32a1.93,1.93,0,1,0,.65,3.8l1.89-.33a29.12,29.12,0,0,0,1.76,5.09l-1.69.9a1.93,1.93,0,1,0,1.81,3.41l1.7-.9A29.13,29.13,0,0,0,11.13,74L9.8,75.43a1.93,1.93,0,1,0,2.77,2.67l1.34-1.39a29.11,29.11,0,0,0,4.42,3.08L17.5,81.5A1.93,1.93,0,0,0,21,83.18l.83-1.72A29,29,0,0,0,27,83l-.25,1.88a1.93,1.93,0,1,0,3.82.51l.25-1.87a29.23,29.23,0,0,0,4.57,0l.33,2a1.93,1.93,0,0,0,3.8-.62l-.32-2a29.54,29.54,0,0,0,5.15-1.66L45.24,83a1.93,1.93,0,0,0,3.43-1.77l-.91-1.76a29.35,29.35,0,0,0,4.38-3.18l1.41,1.39A1.93,1.93,0,0,0,56.25,75l-1.38-1.37a29,29,0,0,0,3.19-4.39l1.72.85A1.93,1.93,0,1,0,61.5,66.6l-1.71-.85a29.3,29.3,0,0,0,1.65-5.18ZM36.08,29.91A24.44,24.44,0,0,1,50.24,37q-3.82,3.25-7.7,6.46a14.49,14.49,0,0,0-7.8-3.62c-.41-.06-.82-.09-1.23-.11q-.48-5-.9-10A24.35,24.35,0,0,1,36.08,29.91ZM42.78,55.6a10.08,10.08,0,1,1-8.64-11.34A10.08,10.08,0,0,1,42.78,55.6ZM27.6,30.24q.69,5,1.31,10a14.6,14.6,0,0,0-9.11,7.46q-4.77-1.6-9.51-3.26A24.6,24.6,0,0,1,27.6,30.24ZM12.18,67.6A24.45,24.45,0,0,1,8.45,51c.08-.59.19-1.18.31-1.75q4.83,1.4,9.64,2.86c0,.08,0,.15,0,.22a14.52,14.52,0,0,0,1.78,9.16Q16.18,64.55,12.18,67.6Zm17.33,11a24.46,24.46,0,0,1-14.16-7.06q3.83-3.25,7.7-6.46a14.47,14.47,0,0,0,7.8,3.62c.41.06.82.09,1.23.11q.48,5,.9,10A24.76,24.76,0,0,1,29.51,78.59ZM38,78.26q-.69-5-1.31-10a14.6,14.6,0,0,0,9.11-7.46q4.76,1.6,9.51,3.26A24.61,24.61,0,0,1,38,78.26Zm18.84-19q-4.83-1.4-9.63-2.86l0-.23A14.5,14.5,0,0,0,45.44,47q4-3.09,8-6.14a24.45,24.45,0,0,1,3.73,16.63C57.05,58.13,56.95,58.71,56.82,59.28Z"/><path class="cls-1" d="M107.6,33.16a1.49,1.49,0,0,0,.76-2.88l-1.4-.37a22.43,22.43,0,0,0,.44-4.19l1.45-.09a1.49,1.49,0,0,0-.18-3l-1.43.08a22.57,22.57,0,0,0-.89-4.12l1.34-.53a1.49,1.49,0,1,0-1.09-2.77l-1.33.53a22.84,22.84,0,0,0-2.14-3.64l1.11-.92a1.49,1.49,0,1,0-1.9-2.3l-1.11.92a22.49,22.49,0,0,0-3.16-2.79l.77-1.22a1.49,1.49,0,0,0-2.52-1.59l-.77,1.21a22.62,22.62,0,0,0-3.88-1.65L92,2.44a1.49,1.49,0,0,0-2.89-.73l-.36,1.42A23.05,23.05,0,0,0,85,2.76L84.9,1.42a1.49,1.49,0,1,0-3,.14L82,2.92a22.39,22.39,0,0,0-4.11.88l-.49-1.28a1.49,1.49,0,1,0-2.78,1.06l.5,1.3A23.07,23.07,0,0,0,71.48,7L70.6,5.92a1.49,1.49,0,1,0-2.31,1.88l.89,1.1A22.69,22.69,0,0,0,66.4,12l-1.2-.77a1.49,1.49,0,1,0-1.62,2.5l1.21.78a22.67,22.67,0,0,0-1.65,3.84L61.73,18A1.49,1.49,0,1,0,61,20.88l1.42.38a22.8,22.8,0,0,0-.4,4.15l-1.46.09a1.49,1.49,0,1,0,.17,3l1.48-.09a22.46,22.46,0,0,0,.92,4.06L61.73,33a1.49,1.49,0,1,0,1.09,2.77l1.38-.55a22.68,22.68,0,0,0,2.13,3.58l-1.14.95A1.49,1.49,0,1,0,67.1,42l1.15-1a22.66,22.66,0,0,0,3.13,2.75l-.79,1.25a1.49,1.49,0,0,0,2.52,1.59l.79-1.25a22.65,22.65,0,0,0,3.84,1.63l-.36,1.42a1.49,1.49,0,1,0,2.89.73l.36-1.42a22.77,22.77,0,0,0,3.52.37l.07,1.58a1.49,1.49,0,0,0,3-.14L87.13,48a23,23,0,0,0,4.1-.83l.55,1.45a1.49,1.49,0,0,0,2.79-1.06L94,46.15a22.5,22.5,0,0,0,3.65-2.07l1,1.19a1.49,1.49,0,0,0,2.32-1.88L100,42.22a22.32,22.32,0,0,0,2.83-3.1l1.25.81a1.49,1.49,0,1,0,1.62-2.5l-1.24-.8a22.47,22.47,0,0,0,1.72-3.84ZM89.33,7A18.9,18.9,0,0,1,99.6,13.68q-3.22,2.17-6.47,4.3a11.2,11.2,0,0,0-5.68-3.46c-.31-.08-.62-.14-.94-.19q.07-3.89.18-7.78A19.08,19.08,0,0,1,89.33,7Zm2.93,20.32a7.8,7.8,0,1,1-5.66-9.46A7.8,7.8,0,0,1,92.26,27.35ZM82.78,6.55q.1,3.89.15,7.78a11.29,11.29,0,0,0-7.64,4.94q-3.52-1.64-7-3.33A19,19,0,0,1,82.78,6.55ZM67.71,33.93a18.92,18.92,0,0,1-1.43-13.1c.11-.45.25-.89.39-1.32q3.59,1.49,7.16,3l0,.17a11.21,11.21,0,0,0,.58,7.19Q71,31.93,67.71,33.93Zm12.37,9.95A18.93,18.93,0,0,1,69.8,37.23q3.23-2.17,6.48-4.3A11.2,11.2,0,0,0,82,36.38c.31.08.62.14.94.19q-.07,3.89-.18,7.77A19,19,0,0,1,80.07,43.88Zm6.55.48q-.1-3.89-.15-7.78a11.29,11.29,0,0,0,7.64-4.94q3.52,1.64,7,3.33A19,19,0,0,1,86.62,44.36Zm16.12-13q-3.59-1.49-7.16-3l0-.17A11.22,11.22,0,0,0,95,21q3.31-2,6.65-4a18.91,18.91,0,0,1,1.43,13.1C103,30.53,102.88,31,102.73,31.4Z"/></g></g></svg>