<svg xmlns="http://www.w3.org/2000/svg" viewBox="0 0 62.52 55.54"><defs><style>.cls-1{fill:#f77969;}.cls-2{fill:#f2f0ee;}.cls-3{fill:#6d6e71;}.cls-4{fill:#c1d93b;}.cls-5{fill:#fbb040;}</style></defs><title>landing4</title><g id="Layer_2" data-name="Layer 2"><g id="_2" data-name="2"><g id="book_1" data-name="book 1"><path class="cls-1" d="M48.52,53.54a1.89,1.89,0,0,1-1.75,2H36.28a1.89,1.89,0,0,1-1.75-2V4.32a1.89,1.89,0,0,1,1.75-2h10.5a1.89,1.89,0,0,1,1.75,2Z"/><rect class="cls-2" x="34.53" y="11.14" width="13.99" height="35.59"/><path class="cls-3" d="M62.52,53.46a1.94,1.94,0,0,1-1.75,2.08H50.27a1.94,1.94,0,0,1-1.75-2.08V2.08A1.94,1.94,0,0,1,50.27,0h10.5a1.94,1.94,0,0,1,1.75,2.08Z"/><path class="cls-2" d="M59.31,9H51.73a.63.63,0,0,1-.58-.67V7.65A.63.63,0,0,1,51.73,7h7.58a.63.63,0,0,1,.58.67v.66A.63.63,0,0,1,59.31,9Z"/><path class="cls-2" d="M59.31,13.64H51.73a.63.63,0,0,1-.58-.67V12.3a.63.63,0,0,1,.58-.66h7.58a.63.63,0,0,1,.58.66V13A.63.63,0,0,1,59.31,13.64Z"/><path class="cls-2" d="M59.31,18.29H51.73a.63.63,0,0,1-.58-.67V17a.63.63,0,0,1,.58-.67h7.58a.63.63,0,0,1,.58.67v.66A.63.63,0,0,1,59.31,18.29Z"/><path class="cls-2" d="M59.31,22.95H51.73a.63.63,0,0,1-.58-.67v-.66a.63.63,0,0,1,.58-.67h7.58a.63.63,0,0,1,.58.67v.66A.63.63,0,0,1,59.31,22.95Z"/><path class="cls-2" d="M59.31,27.6H51.73a.63.63,0,0,1-.58-.67v-.67a.63.63,0,0,1,.58-.66h7.58a.63.63,0,0,1,.58.66v.67A.63.63,0,0,1,59.31,27.6Z"/><path class="cls-4" d="M13.86,53.84a1.8,1.8,0,0,1-2,1.68L1.49,53.76A2,2,0,0,1,0,51.5L6.35,2.81a1.8,1.8,0,0,1,2-1.68L18.72,2.88a2,2,0,0,1,1.47,2.27Z"/><polygon class="cls-2" points="1.99 36.35 15.83 38.7 19.55 10.08 5.71 7.74 1.99 36.35"/><path class="cls-5" d="M34.41,53.54a1.89,1.89,0,0,1-1.75,2H22.17a1.89,1.89,0,0,1-1.75-2V4.32a1.89,1.89,0,0,1,1.75-2h10.5a1.89,1.89,0,0,1,1.75,2Z"/><path class="cls-2" d="M23.62,34.34h7.58a.63.63,0,0,0,.58-.66V33a.63.63,0,0,0-.58-.67H23.62A.63.63,0,0,0,23,33v.66A.63.63,0,0,0,23.62,34.34Z"/><path class="cls-2" d="M23.62,39h7.58a.63.63,0,0,0,.58-.67v-.66a.63.63,0,0,0-.58-.67H23.62a.63.63,0,0,0-.58.67v.66A.63.63,0,0,0,23.62,39Z"/><path class="cls-2" d="M23.62,43.65h7.58a.63.63,0,0,0,.58-.66v-.66a.63.63,0,0,0-.58-.67H23.62a.63.63,0,0,0-.58.67V43A.63.63,0,0,0,23.62,43.65Z"/><path class="cls-2" d="M23.62,48.31h7.58a.63.63,0,0,0,.58-.66V47a.63.63,0,0,0-.58-.67H23.62A.63.63,0,0,0,23,47v.66A.63.63,0,0,0,23.62,48.31Z"/></g></g></g></svg>