<svg xmlns="http://www.w3.org/2000/svg" viewBox="0 0 116.83 89"><defs><style>.cls-1{fill:#fff;}.cls-2{fill:#be202e;}.cls-3{fill:#fbb255;}.cls-4{fill:#2d3440;}</style></defs><title>landing8</title><g id="Layer_2" data-name="Layer 2"><g id="Object"><circle class="cls-1" cx="44.67" cy="44.52" r="43.5"/><path class="cls-2" d="M44.5,89A44.5,44.5,0,1,1,89,44.5,44.55,44.55,0,0,1,44.5,89Zm0-84A39.5,39.5,0,1,0,84,44.5,39.54,39.54,0,0,0,44.5,5Z"/><path class="cls-2" d="M44.5,78.38A33.88,33.88,0,1,1,78.38,44.5,33.91,33.91,0,0,1,44.5,78.38Zm0-62.75A28.88,28.88,0,1,0,73.38,44.5,28.91,28.91,0,0,0,44.5,15.63Z"/><path class="cls-2" d="M44.5,66.5a22,22,0,1,1,22-22A22,22,0,0,1,44.5,66.5Zm0-39a17,17,0,1,0,17,17A17,17,0,0,0,44.5,27.5Z"/><circle class="cls-2" cx="44.5" cy="44.5" r="6.88"/><polygon class="cls-3" points="110.83 44.44 98.08 44.44 104.08 38.69 116.83 38.69 110.83 44.44"/><polygon class="cls-3" points="110.83 44.56 98.08 44.56 104.08 50.31 116.83 50.31 110.83 44.56"/><rect class="cls-4" x="46.71" y="43.44" width="65.5" height="2.25"/></g></g></svg>