<svg xmlns="http://www.w3.org/2000/svg" viewBox="0 0 146.59 93.75"><defs><style>.cls-1{fill:#5b5752;}.cls-2{fill:#818181;}.cls-3{fill:#f1f2f2;}.cls-4{fill:#f17f67;}.cls-5{fill:#62c3ed;}.cls-6{fill:#f6b84e;}.cls-7{fill:#c1d93b;}</style></defs><title>landing3</title><g id="Layer_2" data-name="Layer 2"><g id="_2" data-name="2"><g id="laptop"><path class="cls-1" d="M0,83.8v5.27c0,2.52,2.45,4.59,5.45,4.59H32a50.71,50.71,0,0,0,6,0h70.45a50.67,50.67,0,0,0,6,0h26.56c3,0,5.44-2.06,5.44-4.59V83.8Z"/><rect class="cls-2" x="40.7" y="87.35" width="65.19" height="1.81"/><path class="cls-1" d="M130.43,0H16.16a4.6,4.6,0,0,0-4.59,4.59V81.67H135V4.59A4.6,4.6,0,0,0,130.43,0Zm-1.78,77.3H17.94V6.59H128.65Z"/><circle class="cls-2" cx="73.29" cy="3.65" r="1.76"/><path class="cls-2" d="M130.43.62H16.16a4,4,0,0,0-4,4v.62a4,4,0,0,1,4-4H130.43a4,4,0,0,1,4,4V4.59A4,4,0,0,0,130.43.62Z"/><rect class="cls-3" x="17.94" y="6.59" width="110.71" height="70.71"/></g><g id="laptop_scr" data-name="laptop scr"><rect class="cls-2" x="22.13" y="9.68" width="32.26" height="7.84"/><rect class="cls-4" x="22.13" y="20.28" width="102.32" height="23.05"/><rect class="cls-5" x="22.13" y="46.09" width="32.26" height="23.05"/><rect class="cls-2" x="22.13" y="71.9" width="32.26" height="2.31"/><rect class="cls-2" x="57.16" y="71.9" width="32.26" height="2.31"/><rect class="cls-2" x="92.19" y="71.9" width="32.26" height="2.31"/><rect class="cls-6" x="57.16" y="46.09" width="32.26" height="23.05"/><rect class="cls-7" x="92.19" y="46.09" width="32.26" height="23.05"/></g></g></g></svg>